<?xml version="1.0" encoding="UTF-8"?>
<svg width="60" height="90" viewBox="0 0 60 90" xmlns="http://www.w3.org/2000/svg" xmlns:xlink="http://www.w3.org/1999/xlink" xml:space="preserve" version="1.1"  baseProfile="full">
 <g id="mainlayer" font-size="10" style="font-family: monospace">
<rect style="fill:#000" x="0" y="0" width="6" height="10"/>
<rect style="fill:#000" x="6" y="0" width="6" height="10"/>
<rect style="fill:#000" x="12" y="0" width="6" height="10"/>
<rect style="fill:#000" x="18" y="0" width="6" height="10"/>
<rect style="fill:#000" x="24" y="0" width="6" height="10"/>
<rect style="fill:#000" x="30" y="0" width="6" height="10"/>
<rect style="fill:#000" x="36" y="0" width="6" height="10"/>
<rect style="fill:#aaa" x="42" y="0" width="6" height="10"/>
<rect style="fill:#aaa" x="48" y="0" width="6" height="10"/>
<rect style="fill:#5f5" x="54" y="0" width="6" height="10"/>
<rect style="fill:#000" x="0" y="10" width="6" height="10"/>
<rect style="fill:#000" x="6" y="10" width="6" height="10"/>
<rect style="fill:#aaa" x="12" y="10" width="6" height="10"/>
<rect style="fill:#aaa" x="18" y="10" width="6" height="10"/>
<rect style="fill:#aaa" x="24" y="10" width="6" height="10"/>
<rect style="fill:#aaa" x="30" y="10" width="6" height="10"/>
<rect style="fill:#aaa" x="36" y="10" width="6" height="10"/>
<rect style="fill:#000" x="42" y="10" width="6" height="10"/>
<rect style="fill:#000" x="48" y="10" width="6" height="10"/>
<rect style="fill:#aaa" x="54" y="10" width="6" height="10"/>
<rect style="fill:#000" x="0" y="20" width="6" height="10"/>
<rect style="fill:#000" x="6" y="20" width="6" height="10"/>
<rect style="fill:#aaa" x="12" y="20" width="6" height="10"/>
<rect style="fill:#aaa" x="18" y="20" width="6" height="10"/>
<rect style="fill:#5f5" x="24" y="20" width="6" height="10"/>
<rect style="fill:#5f5" x="30" y="20" width="6" height="10"/>
<rect style="fill:#5f5" x="36" y="20" width="6" height="10"/>
<rect style="fill:#000" x="42" y="20" width="6" height="10"/>
<rect style="fill:#000" x="48" y="20" width="6" height="10"/>
<rect style="fill:#aaa" x="54" y="20" width="6" height="10"/>
<rect style="fill:#000" x="0" y="30" width="6" height="10"/>
<rect style="fill:#000" x="6" y="30" width="6" height="10"/>
<rect style="fill:#aaa" x="12" y="30" width="6" height="10"/>
<rect style="fill:#aaa" x="18" y="30" width="6" height="10"/>
<rect style="fill:#5f5" x="24" y="30" width="6" height="10"/>
<rect style="fill:#5f5" x="30" y="30" width="6" height="10"/>
<rect style="fill:#5f5" x="36" y="30" width="6" height="10"/>
<rect style="fill:#000" x="42" y="30" width="6" height="10"/>
<rect style="fill:#000" x="48" y="30" width="6" height="10"/>
<rect style="fill:#aaa" x="54" y="30" width="6" height="10"/>
<rect style="fill:#000" x="0" y="40" width="6" height="10"/>
<rect style="fill:#000" x="6" y="40" width="6" height="10"/>
<rect style="fill:#aaa" x="12" y="40" width="6" height="10"/>
<rect style="fill:#aaa" x="18" y="40" width="6" height="10"/>
<rect style="fill:#5f5" x="24" y="40" width="6" height="10"/>
<rect style="fill:#5f5" x="30" y="40" width="6" height="10"/>
<rect style="fill:#5f5" x="36" y="40" width="6" height="10"/>
<rect style="fill:#000" x="42" y="40" width="6" height="10"/>
<rect style="fill:#000" x="48" y="40" width="6" height="10"/>
<rect style="fill:#aaa" x="54" y="40" width="6" height="10"/>
<rect style="fill:#000" x="0" y="50" width="6" height="10"/>
<rect style="fill:#000" x="6" y="50" width="6" height="10"/>
<rect style="fill:#aaa" x="12" y="50" width="6" height="10"/>
<rect style="fill:#aaa" x="18" y="50" width="6" height="10"/>
<rect style="fill:#5f5" x="24" y="50" width="6" height="10"/>
<rect style="fill:#5f5" x="30" y="50" width="6" height="10"/>
<rect style="fill:#5f5" x="36" y="50" width="6" height="10"/>
<rect style="fill:#000" x="42" y="50" width="6" height="10"/>
<rect style="fill:#000" x="48" y="50" width="6" height="10"/>
<rect style="fill:#aaa" x="54" y="50" width="6" height="10"/>
<rect style="fill:#000" x="0" y="60" width="6" height="10"/>
<rect style="fill:#000" x="6" y="60" width="6" height="10"/>
<rect style="fill:#aaa" x="12" y="60" width="6" height="10"/>
<rect style="fill:#aaa" x="18" y="60" width="6" height="10"/>
<rect style="fill:#5f5" x="24" y="60" width="6" height="10"/>
<rect style="fill:#5f5" x="30" y="60" width="6" height="10"/>
<rect style="fill:#5f5" x="36" y="60" width="6" height="10"/>
<rect style="fill:#000" x="42" y="60" width="6" height="10"/>
<rect style="fill:#000" x="48" y="60" width="6" height="10"/>
<rect style="fill:#aaa" x="54" y="60" width="6" height="10"/>
<rect style="fill:#000" x="0" y="70" width="6" height="10"/>
<rect style="fill:#000" x="6" y="70" width="6" height="10"/>
<rect style="fill:#000" x="12" y="70" width="6" height="10"/>
<rect style="fill:#000" x="18" y="70" width="6" height="10"/>
<rect style="fill:#000" x="24" y="70" width="6" height="10"/>
<rect style="fill:#000" x="30" y="70" width="6" height="10"/>
<rect style="fill:#000" x="36" y="70" width="6" height="10"/>
<rect style="fill:#aaa" x="42" y="70" width="6" height="10"/>
<rect style="fill:#aaa" x="48" y="70" width="6" height="10"/>
<rect style="fill:#aaa" x="54" y="70" width="6" height="10"/>
<rect style="fill:#aaa" x="0" y="80" width="6" height="10"/>
<rect style="fill:#aaa" x="6" y="80" width="6" height="10"/>
<rect style="fill:#aaa" x="12" y="80" width="6" height="10"/>
<rect style="fill:#aaa" x="18" y="80" width="6" height="10"/>
<rect style="fill:#aaa" x="24" y="80" width="6" height="10"/>
<rect style="fill:#aaa" x="30" y="80" width="6" height="10"/>
<rect style="fill:#aaa" x="36" y="80" width="6" height="10"/>
<rect style="fill:#aaa" x="42" y="80" width="6" height="10"/>
<rect style="fill:#aaa" x="48" y="80" width="6" height="10"/>
<rect style="fill:#5f5" x="54" y="80" width="6" height="10"/>
<text style="fill:#00a" x="0" y="8">;</text>
<text style="fill:#00a" x="6" y="8">;</text>
<text style="fill:#00a" x="12" y="8">;</text>
<text style="fill:#00a" x="18" y="8">;</text>
<text style="fill:#00a" x="24" y="8">;</text>
<text style="fill:#00a" x="30" y="8">;</text>
<text style="fill:#00a" x="36" y="8">;</text>
<text style="fill:#00a" x="0" y="18">;</text>
<text style="fill:#00a" x="6" y="18">;</text>
<text style="fill:#00a" x="42" y="18">;</text>
<text style="fill:#00a" x="48" y="18">;</text>
<text style="fill:#00a" x="0" y="28">;</text>
<text style="fill:#00a" x="6" y="28">;</text>
<text style="fill:#00a" x="42" y="28">;</text>
<text style="fill:#00a" x="48" y="28">;</text>
<text style="fill:#00a" x="0" y="38">;</text>
<text style="fill:#00a" x="6" y="38">;</text>
<text style="fill:#00a" x="42" y="38">;</text>
<text style="fill:#00a" x="48" y="38">;</text>
<text style="fill:#00a" x="0" y="48">;</text>
<text style="fill:#00a" x="6" y="48">;</text>
<text style="fill:#00a" x="42" y="48">;</text>
<text style="fill:#00a" x="48" y="48">;</text>
<text style="fill:#00a" x="0" y="58">;</text>
<text style="fill:#00a" x="6" y="58">;</text>
<text style="fill:#00a" x="42" y="58">;</text>
<text style="fill:#00a" x="48" y="58">;</text>
<text style="fill:#00a" x="0" y="68">;</text>
<text style="fill:#00a" x="6" y="68">;</text>
<text style="fill:#00a" x="42" y="68">;</text>
<text style="fill:#00a" x="48" y="68">;</text>
<text style="fill:#00a" x="0" y="78">;</text>
<text style="fill:#00a" x="6" y="78">;</text>
<text style="fill:#00a" x="12" y="78">;</text>
<text style="fill:#00a" x="18" y="78">;</text>
<text style="fill:#00a" x="24" y="78">;</text>
<text style="fill:#00a" x="30" y="78">;</text>
<text style="fill:#00a" x="36" y="78">;</text>
 </g>
</svg>
