<?xml version="1.0" encoding="UTF-8"?>
<svg width="18" height="90" viewBox="0 0 18 90" xmlns="http://www.w3.org/2000/svg" xmlns:xlink="http://www.w3.org/1999/xlink" xml:space="preserve" version="1.1"  baseProfile="full">
 <g id="mainlayer" font-size="10" style="font-family: monospace">
<rect style="fill:#000" x="0" y="0" width="6" height="10"/>
<rect style="fill:#000" x="6" y="0" width="6" height="10"/>
<rect style="fill:#aaa" x="12" y="0" width="6" height="10"/>
<rect style="fill:#aaa" x="0" y="10" width="6" height="10"/>
<rect style="fill:#aaa" x="6" y="10" width="6" height="10"/>
<rect style="fill:#5f5" x="12" y="10" width="6" height="10"/>
<rect style="fill:#000" x="0" y="20" width="6" height="10"/>
<rect style="fill:#000" x="6" y="20" width="6" height="10"/>
<rect style="fill:#aaa" x="12" y="20" width="6" height="10"/>
<rect style="fill:#000" x="0" y="30" width="6" height="10"/>
<rect style="fill:#000" x="6" y="30" width="6" height="10"/>
<rect style="fill:#aaa" x="12" y="30" width="6" height="10"/>
<rect style="fill:#000" x="0" y="40" width="6" height="10"/>
<rect style="fill:#000" x="6" y="40" width="6" height="10"/>
<rect style="fill:#aaa" x="12" y="40" width="6" height="10"/>
<rect style="fill:#000" x="0" y="50" width="6" height="10"/>
<rect style="fill:#000" x="6" y="50" width="6" height="10"/>
<rect style="fill:#aaa" x="12" y="50" width="6" height="10"/>
<rect style="fill:#000" x="0" y="60" width="6" height="10"/>
<rect style="fill:#000" x="6" y="60" width="6" height="10"/>
<rect style="fill:#aaa" x="12" y="60" width="6" height="10"/>
<rect style="fill:#aaa" x="0" y="70" width="6" height="10"/>
<rect style="fill:#aaa" x="6" y="70" width="6" height="10"/>
<rect style="fill:#aaa" x="12" y="70" width="6" height="10"/>
<rect style="fill:#5f5" x="0" y="80" width="6" height="10"/>
<rect style="fill:#5f5" x="6" y="80" width="6" height="10"/>
<rect style="fill:#5f5" x="12" y="80" width="6" height="10"/>
<text style="fill:#00a" x="0" y="8">;</text>
<text style="fill:#00a" x="6" y="8">;</text>
<text style="fill:#00a" x="0" y="28">;</text>
<text style="fill:#00a" x="6" y="28">;</text>
<text style="fill:#00a" x="0" y="38">;</text>
<text style="fill:#00a" x="6" y="38">;</text>
<text style="fill:#00a" x="0" y="48">;</text>
<text style="fill:#00a" x="6" y="48">;</text>
<text style="fill:#00a" x="0" y="58">;</text>
<text style="fill:#00a" x="6" y="58">;</text>
<text style="fill:#00a" x="0" y="68">;</text>
<text style="fill:#00a" x="6" y="68">;</text>
 </g>
</svg>
