<?xml version="1.0" encoding="UTF-8"?>
<svg width="120" height="160" viewBox="0 0 120 160" xmlns="http://www.w3.org/2000/svg" xmlns:xlink="http://www.w3.org/1999/xlink" xml:space="preserve" version="1.1"  baseProfile="full">
 <g id="mainlayer" font-size="10" style="font-family: monospace">
<rect style="fill:#0a0" x="0" y="0" width="6" height="10"/>
<rect style="fill:#0a0" x="6" y="0" width="6" height="10"/>
<rect style="fill:#0a0" x="12" y="0" width="6" height="10"/>
<rect style="fill:#0a0" x="18" y="0" width="6" height="10"/>
<rect style="fill:#0a0" x="24" y="0" width="6" height="10"/>
<rect style="fill:#0a0" x="30" y="0" width="6" height="10"/>
<rect style="fill:#0a0" x="36" y="0" width="6" height="10"/>
<rect style="fill:#0a0" x="42" y="0" width="6" height="10"/>
<rect style="fill:#0a0" x="48" y="0" width="6" height="10"/>
<rect style="fill:#0a0" x="54" y="0" width="6" height="10"/>
<rect style="fill:#0a0" x="60" y="0" width="6" height="10"/>
<rect style="fill:#0a0" x="66" y="0" width="6" height="10"/>
<rect style="fill:#0a0" x="72" y="0" width="6" height="10"/>
<rect style="fill:#0a0" x="78" y="0" width="6" height="10"/>
<rect style="fill:#0a0" x="84" y="0" width="6" height="10"/>
<rect style="fill:#0a0" x="90" y="0" width="6" height="10"/>
<rect style="fill:#0a0" x="96" y="0" width="6" height="10"/>
<rect style="fill:#0a0" x="102" y="0" width="6" height="10"/>
<rect style="fill:#0a0" x="108" y="0" width="6" height="10"/>
<rect style="fill:#0a0" x="114" y="0" width="6" height="10"/>
<rect style="fill:#0a0" x="0" y="10" width="6" height="10"/>
<rect style="fill:#0a0" x="6" y="10" width="6" height="10"/>
<rect style="fill:#0a0" x="12" y="10" width="6" height="10"/>
<rect style="fill:#0a0" x="18" y="10" width="6" height="10"/>
<rect style="fill:#0a0" x="24" y="10" width="6" height="10"/>
<rect style="fill:#0a0" x="30" y="10" width="6" height="10"/>
<rect style="fill:#000" x="36" y="10" width="6" height="10"/>
<rect style="fill:#000" x="42" y="10" width="6" height="10"/>
<rect style="fill:#000" x="48" y="10" width="6" height="10"/>
<rect style="fill:#000" x="54" y="10" width="6" height="10"/>
<rect style="fill:#000" x="60" y="10" width="6" height="10"/>
<rect style="fill:#000" x="66" y="10" width="6" height="10"/>
<rect style="fill:#000" x="72" y="10" width="6" height="10"/>
<rect style="fill:#000" x="78" y="10" width="6" height="10"/>
<rect style="fill:#000" x="84" y="10" width="6" height="10"/>
<rect style="fill:#000" x="90" y="10" width="6" height="10"/>
<rect style="fill:#0a0" x="96" y="10" width="6" height="10"/>
<rect style="fill:#0a0" x="102" y="10" width="6" height="10"/>
<rect style="fill:#0a0" x="108" y="10" width="6" height="10"/>
<rect style="fill:#0a0" x="114" y="10" width="6" height="10"/>
<rect style="fill:#0a0" x="0" y="20" width="6" height="10"/>
<rect style="fill:#0a0" x="6" y="20" width="6" height="10"/>
<rect style="fill:#0a0" x="12" y="20" width="6" height="10"/>
<rect style="fill:#0a0" x="18" y="20" width="6" height="10"/>
<rect style="fill:#000" x="24" y="20" width="6" height="10"/>
<rect style="fill:#000" x="30" y="20" width="6" height="10"/>
<rect style="fill:#a00" x="36" y="20" width="6" height="10"/>
<rect style="fill:#f55" x="42" y="20" width="6" height="10"/>
<rect style="fill:#f55" x="48" y="20" width="6" height="10"/>
<rect style="fill:#f55" x="54" y="20" width="6" height="10"/>
<rect style="fill:#f55" x="60" y="20" width="6" height="10"/>
<rect style="fill:#f55" x="66" y="20" width="6" height="10"/>
<rect style="fill:#f55" x="72" y="20" width="6" height="10"/>
<rect style="fill:#f55" x="78" y="20" width="6" height="10"/>
<rect style="fill:#f55" x="84" y="20" width="6" height="10"/>
<rect style="fill:#a00" x="90" y="20" width="6" height="10"/>
<rect style="fill:#000" x="96" y="20" width="6" height="10"/>
<rect style="fill:#000" x="102" y="20" width="6" height="10"/>
<rect style="fill:#0a0" x="108" y="20" width="6" height="10"/>
<rect style="fill:#0a0" x="114" y="20" width="6" height="10"/>
<rect style="fill:#0a0" x="0" y="30" width="6" height="10"/>
<rect style="fill:#0a0" x="6" y="30" width="6" height="10"/>
<rect style="fill:#0a0" x="12" y="30" width="6" height="10"/>
<rect style="fill:#000" x="18" y="30" width="6" height="10"/>
<rect style="fill:#a00" x="24" y="30" width="6" height="10"/>
<rect style="fill:#a00" x="30" y="30" width="6" height="10"/>
<rect style="fill:#f55" x="36" y="30" width="6" height="10"/>
<rect style="fill:#f55" x="42" y="30" width="6" height="10"/>
<rect style="fill:#f55" x="48" y="30" width="6" height="10"/>
<rect style="fill:#f55" x="54" y="30" width="6" height="10"/>
<rect style="fill:#f55" x="60" y="30" width="6" height="10"/>
<rect style="fill:#f55" x="66" y="30" width="6" height="10"/>
<rect style="fill:#f55" x="72" y="30" width="6" height="10"/>
<rect style="fill:#f55" x="78" y="30" width="6" height="10"/>
<rect style="fill:#f55" x="84" y="30" width="6" height="10"/>
<rect style="fill:#f55" x="90" y="30" width="6" height="10"/>
<rect style="fill:#a00" x="96" y="30" width="6" height="10"/>
<rect style="fill:#a00" x="102" y="30" width="6" height="10"/>
<rect style="fill:#000" x="108" y="30" width="6" height="10"/>
<rect style="fill:#0a0" x="114" y="30" width="6" height="10"/>
<rect style="fill:#0a0" x="0" y="40" width="6" height="10"/>
<rect style="fill:#0a0" x="6" y="40" width="6" height="10"/>
<rect style="fill:#0a0" x="12" y="40" width="6" height="10"/>
<rect style="fill:#000" x="18" y="40" width="6" height="10"/>
<rect style="fill:#a00" x="24" y="40" width="6" height="10"/>
<rect style="fill:#a00" x="30" y="40" width="6" height="10"/>
<rect style="fill:#a00" x="36" y="40" width="6" height="10"/>
<rect style="fill:#f55" x="42" y="40" width="6" height="10"/>
<rect style="fill:#f55" x="48" y="40" width="6" height="10"/>
<rect style="fill:#f55" x="54" y="40" width="6" height="10"/>
<rect style="fill:#f55" x="60" y="40" width="6" height="10"/>
<rect style="fill:#f55" x="66" y="40" width="6" height="10"/>
<rect style="fill:#f55" x="72" y="40" width="6" height="10"/>
<rect style="fill:#f55" x="78" y="40" width="6" height="10"/>
<rect style="fill:#f55" x="84" y="40" width="6" height="10"/>
<rect style="fill:#a00" x="90" y="40" width="6" height="10"/>
<rect style="fill:#a00" x="96" y="40" width="6" height="10"/>
<rect style="fill:#a00" x="102" y="40" width="6" height="10"/>
<rect style="fill:#000" x="108" y="40" width="6" height="10"/>
<rect style="fill:#0a0" x="114" y="40" width="6" height="10"/>
<rect style="fill:#0a0" x="0" y="50" width="6" height="10"/>
<rect style="fill:#0a0" x="6" y="50" width="6" height="10"/>
<rect style="fill:#0a0" x="12" y="50" width="6" height="10"/>
<rect style="fill:#000" x="18" y="50" width="6" height="10"/>
<rect style="fill:#a00" x="24" y="50" width="6" height="10"/>
<rect style="fill:#a00" x="30" y="50" width="6" height="10"/>
<rect style="fill:#a00" x="36" y="50" width="6" height="10"/>
<rect style="fill:#a00" x="42" y="50" width="6" height="10"/>
<rect style="fill:#a00" x="48" y="50" width="6" height="10"/>
<rect style="fill:#a00" x="54" y="50" width="6" height="10"/>
<rect style="fill:#fff" x="60" y="50" width="6" height="10"/>
<rect style="fill:#fff" x="66" y="50" width="6" height="10"/>
<rect style="fill:#a00" x="72" y="50" width="6" height="10"/>
<rect style="fill:#a00" x="78" y="50" width="6" height="10"/>
<rect style="fill:#a00" x="84" y="50" width="6" height="10"/>
<rect style="fill:#a00" x="90" y="50" width="6" height="10"/>
<rect style="fill:#a00" x="96" y="50" width="6" height="10"/>
<rect style="fill:#a00" x="102" y="50" width="6" height="10"/>
<rect style="fill:#000" x="108" y="50" width="6" height="10"/>
<rect style="fill:#0a0" x="114" y="50" width="6" height="10"/>
<rect style="fill:#0a0" x="0" y="60" width="6" height="10"/>
<rect style="fill:#0a0" x="6" y="60" width="6" height="10"/>
<rect style="fill:#000" x="12" y="60" width="6" height="10"/>
<rect style="fill:#a50" x="18" y="60" width="6" height="10"/>
<rect style="fill:#000" x="24" y="60" width="6" height="10"/>
<rect style="fill:#000" x="30" y="60" width="6" height="10"/>
<rect style="fill:#555" x="36" y="60" width="6" height="10"/>
<rect style="fill:#aaa" x="42" y="60" width="6" height="10"/>
<rect style="fill:#aaa" x="48" y="60" width="6" height="10"/>
<rect style="fill:#aaa" x="54" y="60" width="6" height="10"/>
<rect style="fill:#aaa" x="60" y="60" width="6" height="10"/>
<rect style="fill:#aaa" x="66" y="60" width="6" height="10"/>
<rect style="fill:#aaa" x="72" y="60" width="6" height="10"/>
<rect style="fill:#aaa" x="78" y="60" width="6" height="10"/>
<rect style="fill:#aaa" x="84" y="60" width="6" height="10"/>
<rect style="fill:#555" x="90" y="60" width="6" height="10"/>
<rect style="fill:#000" x="96" y="60" width="6" height="10"/>
<rect style="fill:#000" x="102" y="60" width="6" height="10"/>
<rect style="fill:#a50" x="108" y="60" width="6" height="10"/>
<rect style="fill:#000" x="114" y="60" width="6" height="10"/>
<rect style="fill:#0a0" x="0" y="70" width="6" height="10"/>
<rect style="fill:#0a0" x="6" y="70" width="6" height="10"/>
<rect style="fill:#0a0" x="12" y="70" width="6" height="10"/>
<rect style="fill:#000" x="18" y="70" width="6" height="10"/>
<rect style="fill:#000" x="24" y="70" width="6" height="10"/>
<rect style="fill:#000" x="30" y="70" width="6" height="10"/>
<rect style="fill:#a50" x="36" y="70" width="6" height="10"/>
<rect style="fill:#000" x="42" y="70" width="6" height="10"/>
<rect style="fill:#000" x="48" y="70" width="6" height="10"/>
<rect style="fill:#000" x="54" y="70" width="6" height="10"/>
<rect style="fill:#000" x="60" y="70" width="6" height="10"/>
<rect style="fill:#000" x="66" y="70" width="6" height="10"/>
<rect style="fill:#000" x="72" y="70" width="6" height="10"/>
<rect style="fill:#000" x="78" y="70" width="6" height="10"/>
<rect style="fill:#000" x="84" y="70" width="6" height="10"/>
<rect style="fill:#a50" x="90" y="70" width="6" height="10"/>
<rect style="fill:#000" x="96" y="70" width="6" height="10"/>
<rect style="fill:#000" x="102" y="70" width="6" height="10"/>
<rect style="fill:#000" x="108" y="70" width="6" height="10"/>
<rect style="fill:#0a0" x="114" y="70" width="6" height="10"/>
<rect style="fill:#0a0" x="0" y="80" width="6" height="10"/>
<rect style="fill:#0a0" x="6" y="80" width="6" height="10"/>
<rect style="fill:#000" x="12" y="80" width="6" height="10"/>
<rect style="fill:#000" x="18" y="80" width="6" height="10"/>
<rect style="fill:#a50" x="24" y="80" width="6" height="10"/>
<rect style="fill:#a50" x="30" y="80" width="6" height="10"/>
<rect style="fill:#a50" x="36" y="80" width="6" height="10"/>
<rect style="fill:#aaa" x="42" y="80" width="6" height="10"/>
<rect style="fill:#000" x="48" y="80" width="6" height="10"/>
<rect style="fill:#000" x="54" y="80" width="6" height="10"/>
<rect style="fill:#aaa" x="60" y="80" width="6" height="10"/>
<rect style="fill:#aaa" x="66" y="80" width="6" height="10"/>
<rect style="fill:#000" x="72" y="80" width="6" height="10"/>
<rect style="fill:#000" x="78" y="80" width="6" height="10"/>
<rect style="fill:#aaa" x="84" y="80" width="6" height="10"/>
<rect style="fill:#a50" x="90" y="80" width="6" height="10"/>
<rect style="fill:#a50" x="96" y="80" width="6" height="10"/>
<rect style="fill:#a50" x="102" y="80" width="6" height="10"/>
<rect style="fill:#000" x="108" y="80" width="6" height="10"/>
<rect style="fill:#0a0" x="114" y="80" width="6" height="10"/>
<rect style="fill:#000" x="0" y="90" width="6" height="10"/>
<rect style="fill:#000" x="6" y="90" width="6" height="10"/>
<rect style="fill:#a50" x="12" y="90" width="6" height="10"/>
<rect style="fill:#000" x="18" y="90" width="6" height="10"/>
<rect style="fill:#000" x="24" y="90" width="6" height="10"/>
<rect style="fill:#000" x="30" y="90" width="6" height="10"/>
<rect style="fill:#a00" x="36" y="90" width="6" height="10"/>
<rect style="fill:#a00" x="42" y="90" width="6" height="10"/>
<rect style="fill:#a00" x="48" y="90" width="6" height="10"/>
<rect style="fill:#a00" x="54" y="90" width="6" height="10"/>
<rect style="fill:#a50" x="60" y="90" width="6" height="10"/>
<rect style="fill:#a50" x="66" y="90" width="6" height="10"/>
<rect style="fill:#a00" x="72" y="90" width="6" height="10"/>
<rect style="fill:#a00" x="78" y="90" width="6" height="10"/>
<rect style="fill:#a00" x="84" y="90" width="6" height="10"/>
<rect style="fill:#a00" x="90" y="90" width="6" height="10"/>
<rect style="fill:#000" x="96" y="90" width="6" height="10"/>
<rect style="fill:#000" x="102" y="90" width="6" height="10"/>
<rect style="fill:#0a0" x="108" y="90" width="6" height="10"/>
<rect style="fill:#0a0" x="114" y="90" width="6" height="10"/>
<rect style="fill:#0a0" x="0" y="100" width="6" height="10"/>
<rect style="fill:#0a0" x="6" y="100" width="6" height="10"/>
<rect style="fill:#000" x="12" y="100" width="6" height="10"/>
<rect style="fill:#000" x="18" y="100" width="6" height="10"/>
<rect style="fill:#000" x="24" y="100" width="6" height="10"/>
<rect style="fill:#000" x="30" y="100" width="6" height="10"/>
<rect style="fill:#a00" x="36" y="100" width="6" height="10"/>
<rect style="fill:#000" x="42" y="100" width="6" height="10"/>
<rect style="fill:#000" x="48" y="100" width="6" height="10"/>
<rect style="fill:#000" x="54" y="100" width="6" height="10"/>
<rect style="fill:#000" x="60" y="100" width="6" height="10"/>
<rect style="fill:#000" x="66" y="100" width="6" height="10"/>
<rect style="fill:#000" x="72" y="100" width="6" height="10"/>
<rect style="fill:#000" x="78" y="100" width="6" height="10"/>
<rect style="fill:#a00" x="84" y="100" width="6" height="10"/>
<rect style="fill:#000" x="90" y="100" width="6" height="10"/>
<rect style="fill:#000" x="96" y="100" width="6" height="10"/>
<rect style="fill:#000" x="102" y="100" width="6" height="10"/>
<rect style="fill:#000" x="108" y="100" width="6" height="10"/>
<rect style="fill:#0a0" x="114" y="100" width="6" height="10"/>
<rect style="fill:#0a0" x="0" y="110" width="6" height="10"/>
<rect style="fill:#0a0" x="6" y="110" width="6" height="10"/>
<rect style="fill:#0a0" x="12" y="110" width="6" height="10"/>
<rect style="fill:#0a0" x="18" y="110" width="6" height="10"/>
<rect style="fill:#000" x="24" y="110" width="6" height="10"/>
<rect style="fill:#000" x="30" y="110" width="6" height="10"/>
<rect style="fill:#a00" x="36" y="110" width="6" height="10"/>
<rect style="fill:#a00" x="42" y="110" width="6" height="10"/>
<rect style="fill:#a00" x="48" y="110" width="6" height="10"/>
<rect style="fill:#a00" x="54" y="110" width="6" height="10"/>
<rect style="fill:#aaa" x="60" y="110" width="6" height="10"/>
<rect style="fill:#aaa" x="66" y="110" width="6" height="10"/>
<rect style="fill:#a00" x="72" y="110" width="6" height="10"/>
<rect style="fill:#a00" x="78" y="110" width="6" height="10"/>
<rect style="fill:#000" x="84" y="110" width="6" height="10"/>
<rect style="fill:#aaa" x="90" y="110" width="6" height="10"/>
<rect style="fill:#aaa" x="96" y="110" width="6" height="10"/>
<rect style="fill:#aaa" x="102" y="110" width="6" height="10"/>
<rect style="fill:#000" x="108" y="110" width="6" height="10"/>
<rect style="fill:#0a0" x="114" y="110" width="6" height="10"/>
<rect style="fill:#0a0" x="0" y="120" width="6" height="10"/>
<rect style="fill:#0a0" x="6" y="120" width="6" height="10"/>
<rect style="fill:#0a0" x="12" y="120" width="6" height="10"/>
<rect style="fill:#0a0" x="18" y="120" width="6" height="10"/>
<rect style="fill:#000" x="24" y="120" width="6" height="10"/>
<rect style="fill:#000" x="30" y="120" width="6" height="10"/>
<rect style="fill:#555" x="36" y="120" width="6" height="10"/>
<rect style="fill:#a00" x="42" y="120" width="6" height="10"/>
<rect style="fill:#a00" x="48" y="120" width="6" height="10"/>
<rect style="fill:#a00" x="54" y="120" width="6" height="10"/>
<rect style="fill:#555" x="60" y="120" width="6" height="10"/>
<rect style="fill:#555" x="66" y="120" width="6" height="10"/>
<rect style="fill:#a00" x="72" y="120" width="6" height="10"/>
<rect style="fill:#a00" x="78" y="120" width="6" height="10"/>
<rect style="fill:#000" x="84" y="120" width="6" height="10"/>
<rect style="fill:#a00" x="90" y="120" width="6" height="10"/>
<rect style="fill:#a00" x="96" y="120" width="6" height="10"/>
<rect style="fill:#a00" x="102" y="120" width="6" height="10"/>
<rect style="fill:#000" x="108" y="120" width="6" height="10"/>
<rect style="fill:#0a0" x="114" y="120" width="6" height="10"/>
<rect style="fill:#0a0" x="0" y="130" width="6" height="10"/>
<rect style="fill:#0a0" x="6" y="130" width="6" height="10"/>
<rect style="fill:#0a0" x="12" y="130" width="6" height="10"/>
<rect style="fill:#0a0" x="18" y="130" width="6" height="10"/>
<rect style="fill:#0a0" x="24" y="130" width="6" height="10"/>
<rect style="fill:#0a0" x="30" y="130" width="6" height="10"/>
<rect style="fill:#000" x="36" y="130" width="6" height="10"/>
<rect style="fill:#0aa" x="42" y="130" width="6" height="10"/>
<rect style="fill:#0aa" x="48" y="130" width="6" height="10"/>
<rect style="fill:#0aa" x="54" y="130" width="6" height="10"/>
<rect style="fill:#000" x="60" y="130" width="6" height="10"/>
<rect style="fill:#000" x="66" y="130" width="6" height="10"/>
<rect style="fill:#000" x="72" y="130" width="6" height="10"/>
<rect style="fill:#000" x="78" y="130" width="6" height="10"/>
<rect style="fill:#0a0" x="84" y="130" width="6" height="10"/>
<rect style="fill:#0a0" x="90" y="130" width="6" height="10"/>
<rect style="fill:#0a0" x="96" y="130" width="6" height="10"/>
<rect style="fill:#0a0" x="102" y="130" width="6" height="10"/>
<rect style="fill:#0a0" x="108" y="130" width="6" height="10"/>
<rect style="fill:#0a0" x="114" y="130" width="6" height="10"/>
<rect style="fill:#0a0" x="0" y="140" width="6" height="10"/>
<rect style="fill:#0a0" x="6" y="140" width="6" height="10"/>
<rect style="fill:#0a0" x="12" y="140" width="6" height="10"/>
<rect style="fill:#0a0" x="18" y="140" width="6" height="10"/>
<rect style="fill:#0a0" x="24" y="140" width="6" height="10"/>
<rect style="fill:#0a0" x="30" y="140" width="6" height="10"/>
<rect style="fill:#000" x="36" y="140" width="6" height="10"/>
<rect style="fill:#000" x="42" y="140" width="6" height="10"/>
<rect style="fill:#000" x="48" y="140" width="6" height="10"/>
<rect style="fill:#000" x="54" y="140" width="6" height="10"/>
<rect style="fill:#000" x="60" y="140" width="6" height="10"/>
<rect style="fill:#0a0" x="66" y="140" width="6" height="10"/>
<rect style="fill:#0a0" x="72" y="140" width="6" height="10"/>
<rect style="fill:#0a0" x="78" y="140" width="6" height="10"/>
<rect style="fill:#0a0" x="84" y="140" width="6" height="10"/>
<rect style="fill:#0a0" x="90" y="140" width="6" height="10"/>
<rect style="fill:#0a0" x="96" y="140" width="6" height="10"/>
<rect style="fill:#0a0" x="102" y="140" width="6" height="10"/>
<rect style="fill:#0a0" x="108" y="140" width="6" height="10"/>
<rect style="fill:#0a0" x="114" y="140" width="6" height="10"/>
<rect style="fill:#0a0" x="0" y="150" width="6" height="10"/>
<rect style="fill:#0a0" x="6" y="150" width="6" height="10"/>
<rect style="fill:#0a0" x="12" y="150" width="6" height="10"/>
<rect style="fill:#0a0" x="18" y="150" width="6" height="10"/>
<rect style="fill:#0a0" x="24" y="150" width="6" height="10"/>
<rect style="fill:#0a0" x="30" y="150" width="6" height="10"/>
<rect style="fill:#0a0" x="36" y="150" width="6" height="10"/>
<rect style="fill:#000" x="42" y="150" width="6" height="10"/>
<rect style="fill:#000" x="48" y="150" width="6" height="10"/>
<rect style="fill:#000" x="54" y="150" width="6" height="10"/>
<rect style="fill:#0a0" x="60" y="150" width="6" height="10"/>
<rect style="fill:#0a0" x="66" y="150" width="6" height="10"/>
<rect style="fill:#0a0" x="72" y="150" width="6" height="10"/>
<rect style="fill:#0a0" x="78" y="150" width="6" height="10"/>
<rect style="fill:#0a0" x="84" y="150" width="6" height="10"/>
<rect style="fill:#0a0" x="90" y="150" width="6" height="10"/>
<rect style="fill:#0a0" x="96" y="150" width="6" height="10"/>
<rect style="fill:#0a0" x="102" y="150" width="6" height="10"/>
<rect style="fill:#0a0" x="108" y="150" width="6" height="10"/>
<rect style="fill:#0a0" x="114" y="150" width="6" height="10"/>
<text style="fill:#000" x="0" y="8">8</text>
<text style="fill:#000" x="6" y="8">8</text>
<text style="fill:#000" x="12" y="8">8</text>
<text style="fill:#000" x="18" y="8">8</text>
<text style="fill:#000" x="24" y="8">8</text>
<text style="fill:#000" x="30" y="8">8</text>
<text style="fill:#000" x="36" y="8">8</text>
<text style="fill:#000" x="42" y="8">8</text>
<text style="fill:#000" x="48" y="8">8</text>
<text style="fill:#000" x="54" y="8">8</text>
<text style="fill:#000" x="60" y="8">8</text>
<text style="fill:#000" x="66" y="8">8</text>
<text style="fill:#000" x="72" y="8">8</text>
<text style="fill:#000" x="78" y="8">8</text>
<text style="fill:#000" x="84" y="8">8</text>
<text style="fill:#000" x="90" y="8">8</text>
<text style="fill:#000" x="96" y="8">8</text>
<text style="fill:#000" x="102" y="8">8</text>
<text style="fill:#000" x="108" y="8">8</text>
<text style="fill:#000" x="114" y="8">8</text>
<text style="fill:#000" x="0" y="18">8</text>
<text style="fill:#000" x="6" y="18">8</text>
<text style="fill:#000" x="12" y="18">8</text>
<text style="fill:#000" x="18" y="18">8</text>
<text style="fill:#000" x="24" y="18">8</text>
<text style="fill:#000" x="30" y="18">8</text>
<text style="fill:#a00" x="36" y="18">X</text>
<text style="fill:#a00" x="42" y="18">X</text>
<text style="fill:#a00" x="48" y="18">X</text>
<text style="fill:#a00" x="54" y="18">X</text>
<text style="fill:#a00" x="60" y="18">X</text>
<text style="fill:#a00" x="66" y="18">X</text>
<text style="fill:#a00" x="72" y="18">X</text>
<text style="fill:#a00" x="78" y="18">X</text>
<text style="fill:#a00" x="84" y="18">X</text>
<text style="fill:#a00" x="90" y="18">X</text>
<text style="fill:#000" x="96" y="18">8</text>
<text style="fill:#000" x="102" y="18">8</text>
<text style="fill:#000" x="108" y="18">8</text>
<text style="fill:#000" x="114" y="18">8</text>
<text style="fill:#000" x="0" y="28">8</text>
<text style="fill:#000" x="6" y="28">8</text>
<text style="fill:#000" x="12" y="28">8</text>
<text style="fill:#000" x="18" y="28">8</text>
<text style="fill:#a00" x="24" y="28">X</text>
<text style="fill:#a00" x="30" y="28">X</text>
<text style="fill:#f55" x="36" y="28">;</text>
<text style="fill:#a00" x="42" y="28">;</text>
<text style="fill:#a00" x="48" y="28">;</text>
<text style="fill:#a00" x="54" y="28">;</text>
<text style="fill:#a00" x="60" y="28">;</text>
<text style="fill:#a00" x="66" y="28">;</text>
<text style="fill:#a00" x="72" y="28">;</text>
<text style="fill:#a00" x="78" y="28">;</text>
<text style="fill:#a00" x="84" y="28">;</text>
<text style="fill:#f55" x="90" y="28">;</text>
<text style="fill:#a00" x="96" y="28">X</text>
<text style="fill:#a00" x="102" y="28">X</text>
<text style="fill:#000" x="108" y="28">8</text>
<text style="fill:#000" x="114" y="28">8</text>
<text style="fill:#000" x="0" y="38">8</text>
<text style="fill:#000" x="6" y="38">8</text>
<text style="fill:#000" x="12" y="38">8</text>
<text style="fill:#0a0" x="18" y="38">S</text>
<text style="fill:#000" x="24" y="38">S</text>
<text style="fill:#000" x="30" y="38">S</text>
<text style="fill:#a00" x="36" y="38">;</text>
<text style="fill:#a00" x="42" y="38">;</text>
<text style="fill:#a00" x="48" y="38">;</text>
<text style="fill:#a00" x="54" y="38">;</text>
<text style="fill:#a00" x="60" y="38">;</text>
<text style="fill:#a00" x="66" y="38">;</text>
<text style="fill:#a00" x="72" y="38">;</text>
<text style="fill:#a00" x="78" y="38">;</text>
<text style="fill:#a00" x="84" y="38">;</text>
<text style="fill:#a00" x="90" y="38">;</text>
<text style="fill:#000" x="96" y="38">S</text>
<text style="fill:#000" x="102" y="38">S</text>
<text style="fill:#0a0" x="108" y="38">S</text>
<text style="fill:#000" x="114" y="38">8</text>
<text style="fill:#000" x="0" y="48">8</text>
<text style="fill:#000" x="6" y="48">8</text>
<text style="fill:#000" x="12" y="48">8</text>
<text style="fill:#f55" x="24" y="48">;</text>
<text style="fill:#f55" x="30" y="48">;</text>
<text style="fill:#f55" x="36" y="48">;</text>
<text style="fill:#a00" x="42" y="48">;</text>
<text style="fill:#a00" x="48" y="48">;</text>
<text style="fill:#a00" x="54" y="48">;</text>
<text style="fill:#a00" x="60" y="48">;</text>
<text style="fill:#a00" x="66" y="48">;</text>
<text style="fill:#a00" x="72" y="48">;</text>
<text style="fill:#a00" x="78" y="48">;</text>
<text style="fill:#a00" x="84" y="48">;</text>
<text style="fill:#f55" x="90" y="48">;</text>
<text style="fill:#f55" x="96" y="48">;</text>
<text style="fill:#f55" x="102" y="48">;</text>
<text style="fill:#000" x="114" y="48">8</text>
<text style="fill:#000" x="0" y="58">8</text>
<text style="fill:#000" x="6" y="58">8</text>
<text style="fill:#000" x="12" y="58">8</text>
<text style="fill:#f55" x="24" y="58">;</text>
<text style="fill:#f55" x="30" y="58">;</text>
<text style="fill:#f55" x="36" y="58">;</text>
<text style="fill:#f55" x="42" y="58">;</text>
<text style="fill:#f55" x="48" y="58">;</text>
<text style="fill:#f55" x="54" y="58">;</text>
<text style="fill:#aaa" x="60" y="58">8</text>
<text style="fill:#aaa" x="66" y="58">8</text>
<text style="fill:#f55" x="72" y="58">;</text>
<text style="fill:#f55" x="78" y="58">;</text>
<text style="fill:#f55" x="84" y="58">;</text>
<text style="fill:#f55" x="90" y="58">;</text>
<text style="fill:#f55" x="96" y="58">;</text>
<text style="fill:#f55" x="102" y="58">;</text>
<text style="fill:#000" x="114" y="58">8</text>
<text style="fill:#000" x="0" y="68">8</text>
<text style="fill:#000" x="6" y="68">8</text>
<text style="fill:#a00" x="18" y="68">8</text>
<text style="fill:#a00" x="24" y="68">;</text>
<text style="fill:#a00" x="30" y="68">;</text>
<text style="fill:#0aa" x="36" y="68">%</text>
<text style="fill:#555" x="42" y="68">8</text>
<text style="fill:#555" x="60" y="68">8</text>
<text style="fill:#555" x="66" y="68">8</text>
<text style="fill:#555" x="84" y="68">8</text>
<text style="fill:#0aa" x="90" y="68">%</text>
<text style="fill:#a00" x="96" y="68">;</text>
<text style="fill:#a00" x="102" y="68">;</text>
<text style="fill:#a00" x="108" y="68">8</text>
<text style="fill:#000" x="0" y="78">8</text>
<text style="fill:#000" x="6" y="78">8</text>
<text style="fill:#000" x="12" y="78">8</text>
<text style="fill:#a00" x="24" y="78">8</text>
<text style="fill:#a00" x="30" y="78">8</text>
<text style="fill:#555" x="36" y="78">8</text>
<text style="fill:#00a" x="42" y="78">8</text>
<text style="fill:#00a" x="48" y="78">8</text>
<text style="fill:#00a" x="54" y="78">8</text>
<text style="fill:#00a" x="60" y="78">8</text>
<text style="fill:#00a" x="66" y="78">8</text>
<text style="fill:#00a" x="72" y="78">8</text>
<text style="fill:#00a" x="78" y="78">8</text>
<text style="fill:#00a" x="84" y="78">8</text>
<text style="fill:#555" x="90" y="78">8</text>
<text style="fill:#a00" x="96" y="78">8</text>
<text style="fill:#a00" x="102" y="78">8</text>
<text style="fill:#000" x="114" y="78">8</text>
<text style="fill:#000" x="0" y="88">8</text>
<text style="fill:#000" x="6" y="88">8</text>
<text style="fill:#a00" x="12" y="88">8</text>
<text style="fill:#555" x="24" y="88">8</text>
<text style="fill:#555" x="30" y="88">8</text>
<text style="fill:#555" x="36" y="88">8</text>
<text style="fill:#ff5" x="42" y="88">8</text>
<text style="fill:#ff5" x="60" y="88">8</text>
<text style="fill:#ff5" x="66" y="88">8</text>
<text style="fill:#ff5" x="84" y="88">8</text>
<text style="fill:#555" x="90" y="88">8</text>
<text style="fill:#555" x="96" y="88">8</text>
<text style="fill:#555" x="102" y="88">8</text>
<text style="fill:#000" x="114" y="88">8</text>
<text style="fill:#a00" x="0" y="98">8</text>
<text style="fill:#a00" x="6" y="98">8</text>
<text style="fill:#555" x="12" y="98">8</text>
<text style="fill:#00a" x="18" y="98">8</text>
<text style="fill:#a00" x="24" y="98">%</text>
<text style="fill:#a00" x="30" y="98">%</text>
<text style="fill:#555" x="36" y="98">8</text>
<text style="fill:#555" x="42" y="98">@</text>
<text style="fill:#555" x="48" y="98">@</text>
<text style="fill:#555" x="54" y="98">@</text>
<text style="fill:#aaa" x="60" y="98">@</text>
<text style="fill:#aaa" x="66" y="98">@</text>
<text style="fill:#555" x="72" y="98">@</text>
<text style="fill:#555" x="78" y="98">@</text>
<text style="fill:#555" x="84" y="98">@</text>
<text style="fill:#555" x="90" y="98">8</text>
<text style="fill:#a00" x="96" y="98">%</text>
<text style="fill:#a00" x="102" y="98">%</text>
<text style="fill:#000" x="108" y="98">8</text>
<text style="fill:#000" x="114" y="98">8</text>
<text style="fill:#000" x="0" y="108">8</text>
<text style="fill:#000" x="6" y="108">8</text>
<text style="fill:#00a" x="24" y="108">8</text>
<text style="fill:#00a" x="30" y="108">8</text>
<text style="fill:#f55" x="36" y="108">;</text>
<text style="fill:#a00" x="42" y="108">X</text>
<text style="fill:#f55" x="84" y="108">;</text>
<text style="fill:#00a" x="90" y="108">8</text>
<text style="fill:#00a" x="96" y="108">8</text>
<text style="fill:#00a" x="102" y="108">8</text>
<text style="fill:#000" x="114" y="108">8</text>
<text style="fill:#000" x="0" y="118">8</text>
<text style="fill:#000" x="6" y="118">8</text>
<text style="fill:#000" x="12" y="118">8</text>
<text style="fill:#000" x="18" y="118">8</text>
<text style="fill:#a00" x="24" y="118">8</text>
<text style="fill:#a00" x="30" y="118">8</text>
<text style="fill:#f55" x="36" y="118">;</text>
<text style="fill:#f55" x="42" y="118">;</text>
<text style="fill:#f55" x="48" y="118">;</text>
<text style="fill:#f55" x="54" y="118">;</text>
<text style="fill:#555" x="60" y="118">8</text>
<text style="fill:#555" x="66" y="118">8</text>
<text style="fill:#f55" x="72" y="118">;</text>
<text style="fill:#f55" x="78" y="118">;</text>
<text style="fill:#a00" x="84" y="118">8</text>
<text style="fill:#ff5" x="90" y="118">8</text>
<text style="fill:#ff5" x="96" y="118">8</text>
<text style="fill:#ff5" x="102" y="118">8</text>
<text style="fill:#a00" x="108" y="118">8</text>
<text style="fill:#000" x="114" y="118">8</text>
<text style="fill:#000" x="0" y="128">8</text>
<text style="fill:#000" x="6" y="128">8</text>
<text style="fill:#000" x="12" y="128">8</text>
<text style="fill:#000" x="18" y="128">8</text>
<text style="fill:#00a" x="36" y="128">8</text>
<text style="fill:#000" x="42" y="128">@</text>
<text style="fill:#555" x="48" y="128">t</text>
<text style="fill:#555" x="54" y="128">t</text>
<text style="fill:#aaa" x="60" y="128">%</text>
<text style="fill:#aaa" x="66" y="128">%</text>
<text style="fill:#555" x="72" y="128">t</text>
<text style="fill:#555" x="78" y="128">t</text>
<text style="fill:#a00" x="84" y="128">%</text>
<text style="fill:#555" x="90" y="128">@</text>
<text style="fill:#555" x="96" y="128">@</text>
<text style="fill:#555" x="102" y="128">@</text>
<text style="fill:#0a0" x="108" y="128">X</text>
<text style="fill:#000" x="114" y="128">8</text>
<text style="fill:#000" x="0" y="138">8</text>
<text style="fill:#000" x="6" y="138">8</text>
<text style="fill:#000" x="12" y="138">8</text>
<text style="fill:#000" x="18" y="138">8</text>
<text style="fill:#000" x="24" y="138">8</text>
<text style="fill:#000" x="30" y="138">8</text>
<text style="fill:#555" x="42" y="138">8</text>
<text style="fill:#555" x="48" y="138">8</text>
<text style="fill:#555" x="54" y="138">8</text>
<text style="fill:#00a" x="60" y="138">8</text>
<text style="fill:#000" x="84" y="138">8</text>
<text style="fill:#000" x="90" y="138">8</text>
<text style="fill:#000" x="96" y="138">8</text>
<text style="fill:#000" x="102" y="138">8</text>
<text style="fill:#000" x="108" y="138">8</text>
<text style="fill:#000" x="114" y="138">8</text>
<text style="fill:#000" x="0" y="148">8</text>
<text style="fill:#000" x="6" y="148">8</text>
<text style="fill:#000" x="12" y="148">8</text>
<text style="fill:#000" x="18" y="148">8</text>
<text style="fill:#000" x="24" y="148">8</text>
<text style="fill:#000" x="30" y="148">8</text>
<text style="fill:#00a" x="42" y="148">8</text>
<text style="fill:#00a" x="48" y="148">8</text>
<text style="fill:#00a" x="54" y="148">8</text>
<text style="fill:#000" x="66" y="148">8</text>
<text style="fill:#000" x="72" y="148">8</text>
<text style="fill:#000" x="78" y="148">8</text>
<text style="fill:#000" x="84" y="148">8</text>
<text style="fill:#000" x="90" y="148">8</text>
<text style="fill:#000" x="96" y="148">8</text>
<text style="fill:#000" x="102" y="148">8</text>
<text style="fill:#000" x="108" y="148">8</text>
<text style="fill:#000" x="114" y="148">8</text>
<text style="fill:#000" x="0" y="158">8</text>
<text style="fill:#000" x="6" y="158">8</text>
<text style="fill:#000" x="12" y="158">8</text>
<text style="fill:#000" x="18" y="158">8</text>
<text style="fill:#000" x="24" y="158">8</text>
<text style="fill:#000" x="30" y="158">8</text>
<text style="fill:#000" x="36" y="158">8</text>
<text style="fill:#0a0" x="42" y="158">%</text>
<text style="fill:#0a0" x="48" y="158">%</text>
<text style="fill:#0a0" x="54" y="158">%</text>
<text style="fill:#000" x="60" y="158">8</text>
<text style="fill:#000" x="66" y="158">8</text>
<text style="fill:#000" x="72" y="158">8</text>
<text style="fill:#000" x="78" y="158">8</text>
<text style="fill:#000" x="84" y="158">8</text>
<text style="fill:#000" x="90" y="158">8</text>
<text style="fill:#000" x="96" y="158">8</text>
<text style="fill:#000" x="102" y="158">8</text>
<text style="fill:#000" x="108" y="158">8</text>
<text style="fill:#000" x="114" y="158">8</text>
 </g>
</svg>
