<?xml version="1.0" encoding="UTF-8"?>
<svg width="60" height="130" viewBox="0 0 60 130" xmlns="http://www.w3.org/2000/svg" xmlns:xlink="http://www.w3.org/1999/xlink" xml:space="preserve" version="1.1"  baseProfile="full">
 <g id="mainlayer" font-size="10" style="font-family: monospace">
<rect style="fill:#5f5" x="0" y="0" width="6" height="10"/>
<rect style="fill:#5f5" x="6" y="0" width="6" height="10"/>
<rect style="fill:#5f5" x="12" y="0" width="6" height="10"/>
<rect style="fill:#5f5" x="18" y="0" width="6" height="10"/>
<rect style="fill:#5f5" x="24" y="0" width="6" height="10"/>
<rect style="fill:#5f5" x="30" y="0" width="6" height="10"/>
<rect style="fill:#5f5" x="36" y="0" width="6" height="10"/>
<rect style="fill:#5f5" x="42" y="0" width="6" height="10"/>
<rect style="fill:#5f5" x="48" y="0" width="6" height="10"/>
<rect style="fill:#5f5" x="54" y="0" width="6" height="10"/>
<rect style="fill:#5f5" x="0" y="10" width="6" height="10"/>
<rect style="fill:#5f5" x="6" y="10" width="6" height="10"/>
<rect style="fill:#5f5" x="12" y="10" width="6" height="10"/>
<rect style="fill:#5f5" x="18" y="10" width="6" height="10"/>
<rect style="fill:#5f5" x="24" y="10" width="6" height="10"/>
<rect style="fill:#5f5" x="30" y="10" width="6" height="10"/>
<rect style="fill:#5f5" x="36" y="10" width="6" height="10"/>
<rect style="fill:#5f5" x="42" y="10" width="6" height="10"/>
<rect style="fill:#5f5" x="48" y="10" width="6" height="10"/>
<rect style="fill:#5f5" x="54" y="10" width="6" height="10"/>
<rect style="fill:#000" x="0" y="20" width="6" height="10"/>
<rect style="fill:#000" x="6" y="20" width="6" height="10"/>
<rect style="fill:#000" x="12" y="20" width="6" height="10"/>
<rect style="fill:#000" x="18" y="20" width="6" height="10"/>
<rect style="fill:#000" x="24" y="20" width="6" height="10"/>
<rect style="fill:#000" x="30" y="20" width="6" height="10"/>
<rect style="fill:#000" x="36" y="20" width="6" height="10"/>
<rect style="fill:#000" x="42" y="20" width="6" height="10"/>
<rect style="fill:#000" x="48" y="20" width="6" height="10"/>
<rect style="fill:#aaa" x="54" y="20" width="6" height="10"/>
<rect style="fill:#000" x="0" y="30" width="6" height="10"/>
<rect style="fill:#000" x="6" y="30" width="6" height="10"/>
<rect style="fill:#aaa" x="12" y="30" width="6" height="10"/>
<rect style="fill:#aaa" x="18" y="30" width="6" height="10"/>
<rect style="fill:#aaa" x="24" y="30" width="6" height="10"/>
<rect style="fill:#aaa" x="30" y="30" width="6" height="10"/>
<rect style="fill:#aaa" x="36" y="30" width="6" height="10"/>
<rect style="fill:#aaa" x="42" y="30" width="6" height="10"/>
<rect style="fill:#aaa" x="48" y="30" width="6" height="10"/>
<rect style="fill:#aaa" x="54" y="30" width="6" height="10"/>
<rect style="fill:#000" x="0" y="40" width="6" height="10"/>
<rect style="fill:#000" x="6" y="40" width="6" height="10"/>
<rect style="fill:#aaa" x="12" y="40" width="6" height="10"/>
<rect style="fill:#aaa" x="18" y="40" width="6" height="10"/>
<rect style="fill:#5f5" x="24" y="40" width="6" height="10"/>
<rect style="fill:#5f5" x="30" y="40" width="6" height="10"/>
<rect style="fill:#5f5" x="36" y="40" width="6" height="10"/>
<rect style="fill:#5f5" x="42" y="40" width="6" height="10"/>
<rect style="fill:#5f5" x="48" y="40" width="6" height="10"/>
<rect style="fill:#5f5" x="54" y="40" width="6" height="10"/>
<rect style="fill:#000" x="0" y="50" width="6" height="10"/>
<rect style="fill:#000" x="6" y="50" width="6" height="10"/>
<rect style="fill:#aaa" x="12" y="50" width="6" height="10"/>
<rect style="fill:#aaa" x="18" y="50" width="6" height="10"/>
<rect style="fill:#5f5" x="24" y="50" width="6" height="10"/>
<rect style="fill:#5f5" x="30" y="50" width="6" height="10"/>
<rect style="fill:#5f5" x="36" y="50" width="6" height="10"/>
<rect style="fill:#5f5" x="42" y="50" width="6" height="10"/>
<rect style="fill:#5f5" x="48" y="50" width="6" height="10"/>
<rect style="fill:#5f5" x="54" y="50" width="6" height="10"/>
<rect style="fill:#000" x="0" y="60" width="6" height="10"/>
<rect style="fill:#000" x="6" y="60" width="6" height="10"/>
<rect style="fill:#000" x="12" y="60" width="6" height="10"/>
<rect style="fill:#000" x="18" y="60" width="6" height="10"/>
<rect style="fill:#000" x="24" y="60" width="6" height="10"/>
<rect style="fill:#000" x="30" y="60" width="6" height="10"/>
<rect style="fill:#000" x="36" y="60" width="6" height="10"/>
<rect style="fill:#aaa" x="42" y="60" width="6" height="10"/>
<rect style="fill:#aaa" x="48" y="60" width="6" height="10"/>
<rect style="fill:#5f5" x="54" y="60" width="6" height="10"/>
<rect style="fill:#aaa" x="0" y="70" width="6" height="10"/>
<rect style="fill:#aaa" x="6" y="70" width="6" height="10"/>
<rect style="fill:#aaa" x="12" y="70" width="6" height="10"/>
<rect style="fill:#aaa" x="18" y="70" width="6" height="10"/>
<rect style="fill:#aaa" x="24" y="70" width="6" height="10"/>
<rect style="fill:#aaa" x="30" y="70" width="6" height="10"/>
<rect style="fill:#aaa" x="36" y="70" width="6" height="10"/>
<rect style="fill:#000" x="42" y="70" width="6" height="10"/>
<rect style="fill:#000" x="48" y="70" width="6" height="10"/>
<rect style="fill:#aaa" x="54" y="70" width="6" height="10"/>
<rect style="fill:#5f5" x="0" y="80" width="6" height="10"/>
<rect style="fill:#5f5" x="6" y="80" width="6" height="10"/>
<rect style="fill:#5f5" x="12" y="80" width="6" height="10"/>
<rect style="fill:#5f5" x="18" y="80" width="6" height="10"/>
<rect style="fill:#5f5" x="24" y="80" width="6" height="10"/>
<rect style="fill:#5f5" x="30" y="80" width="6" height="10"/>
<rect style="fill:#5f5" x="36" y="80" width="6" height="10"/>
<rect style="fill:#000" x="42" y="80" width="6" height="10"/>
<rect style="fill:#000" x="48" y="80" width="6" height="10"/>
<rect style="fill:#aaa" x="54" y="80" width="6" height="10"/>
<rect style="fill:#000" x="0" y="90" width="6" height="10"/>
<rect style="fill:#000" x="6" y="90" width="6" height="10"/>
<rect style="fill:#5f5" x="12" y="90" width="6" height="10"/>
<rect style="fill:#5f5" x="18" y="90" width="6" height="10"/>
<rect style="fill:#5f5" x="24" y="90" width="6" height="10"/>
<rect style="fill:#5f5" x="30" y="90" width="6" height="10"/>
<rect style="fill:#5f5" x="36" y="90" width="6" height="10"/>
<rect style="fill:#000" x="42" y="90" width="6" height="10"/>
<rect style="fill:#000" x="48" y="90" width="6" height="10"/>
<rect style="fill:#aaa" x="54" y="90" width="6" height="10"/>
<rect style="fill:#aaa" x="0" y="100" width="6" height="10"/>
<rect style="fill:#aaa" x="6" y="100" width="6" height="10"/>
<rect style="fill:#000" x="12" y="100" width="6" height="10"/>
<rect style="fill:#000" x="18" y="100" width="6" height="10"/>
<rect style="fill:#000" x="24" y="100" width="6" height="10"/>
<rect style="fill:#000" x="30" y="100" width="6" height="10"/>
<rect style="fill:#000" x="36" y="100" width="6" height="10"/>
<rect style="fill:#aaa" x="42" y="100" width="6" height="10"/>
<rect style="fill:#aaa" x="48" y="100" width="6" height="10"/>
<rect style="fill:#aaa" x="54" y="100" width="6" height="10"/>
<rect style="fill:#5f5" x="0" y="110" width="6" height="10"/>
<rect style="fill:#5f5" x="6" y="110" width="6" height="10"/>
<rect style="fill:#aaa" x="12" y="110" width="6" height="10"/>
<rect style="fill:#aaa" x="18" y="110" width="6" height="10"/>
<rect style="fill:#aaa" x="24" y="110" width="6" height="10"/>
<rect style="fill:#aaa" x="30" y="110" width="6" height="10"/>
<rect style="fill:#aaa" x="36" y="110" width="6" height="10"/>
<rect style="fill:#aaa" x="42" y="110" width="6" height="10"/>
<rect style="fill:#aaa" x="48" y="110" width="6" height="10"/>
<rect style="fill:#5f5" x="54" y="110" width="6" height="10"/>
<rect style="fill:#5f5" x="0" y="120" width="6" height="10"/>
<rect style="fill:#5f5" x="6" y="120" width="6" height="10"/>
<rect style="fill:#5f5" x="12" y="120" width="6" height="10"/>
<rect style="fill:#5f5" x="18" y="120" width="6" height="10"/>
<rect style="fill:#5f5" x="24" y="120" width="6" height="10"/>
<rect style="fill:#5f5" x="30" y="120" width="6" height="10"/>
<rect style="fill:#5f5" x="36" y="120" width="6" height="10"/>
<rect style="fill:#5f5" x="42" y="120" width="6" height="10"/>
<rect style="fill:#5f5" x="48" y="120" width="6" height="10"/>
<rect style="fill:#5f5" x="54" y="120" width="6" height="10"/>
<text style="fill:#555" x="0" y="28">8</text>
<text style="fill:#555" x="6" y="28">8</text>
<text style="fill:#555" x="12" y="28">8</text>
<text style="fill:#555" x="18" y="28">8</text>
<text style="fill:#555" x="24" y="28">8</text>
<text style="fill:#555" x="30" y="28">8</text>
<text style="fill:#555" x="36" y="28">8</text>
<text style="fill:#555" x="42" y="28">8</text>
<text style="fill:#555" x="48" y="28">8</text>
<text style="fill:#555" x="54" y="28">.</text>
<text style="fill:#555" x="0" y="38">8</text>
<text style="fill:#555" x="6" y="38">8</text>
<text style="fill:#555" x="12" y="38">.</text>
<text style="fill:#555" x="18" y="38">.</text>
<text style="fill:#555" x="24" y="38">.</text>
<text style="fill:#555" x="30" y="38">.</text>
<text style="fill:#555" x="36" y="38">.</text>
<text style="fill:#555" x="42" y="38">.</text>
<text style="fill:#555" x="48" y="38">.</text>
<text style="fill:#555" x="54" y="38">.</text>
<text style="fill:#555" x="0" y="48">8</text>
<text style="fill:#555" x="6" y="48">8</text>
<text style="fill:#555" x="12" y="48">.</text>
<text style="fill:#555" x="18" y="48">.</text>
<text style="fill:#555" x="0" y="58">8</text>
<text style="fill:#555" x="6" y="58">8</text>
<text style="fill:#555" x="12" y="58">.</text>
<text style="fill:#555" x="18" y="58">.</text>
<text style="fill:#555" x="0" y="68">8</text>
<text style="fill:#555" x="6" y="68">8</text>
<text style="fill:#555" x="12" y="68">8</text>
<text style="fill:#555" x="18" y="68">8</text>
<text style="fill:#555" x="24" y="68">8</text>
<text style="fill:#555" x="30" y="68">8</text>
<text style="fill:#555" x="36" y="68">8</text>
<text style="fill:#555" x="42" y="68">.</text>
<text style="fill:#555" x="48" y="68">.</text>
<text style="fill:#555" x="0" y="78">.</text>
<text style="fill:#555" x="6" y="78">.</text>
<text style="fill:#555" x="12" y="78">.</text>
<text style="fill:#555" x="18" y="78">.</text>
<text style="fill:#555" x="24" y="78">.</text>
<text style="fill:#555" x="30" y="78">.</text>
<text style="fill:#555" x="36" y="78">.</text>
<text style="fill:#555" x="42" y="78">8</text>
<text style="fill:#555" x="48" y="78">8</text>
<text style="fill:#555" x="54" y="78">.</text>
<text style="fill:#555" x="42" y="88">8</text>
<text style="fill:#555" x="48" y="88">8</text>
<text style="fill:#555" x="54" y="88">.</text>
<text style="fill:#555" x="0" y="98">8</text>
<text style="fill:#555" x="6" y="98">8</text>
<text style="fill:#555" x="42" y="98">8</text>
<text style="fill:#555" x="48" y="98">8</text>
<text style="fill:#555" x="54" y="98">.</text>
<text style="fill:#555" x="0" y="108">.</text>
<text style="fill:#555" x="6" y="108">.</text>
<text style="fill:#555" x="12" y="108">8</text>
<text style="fill:#555" x="18" y="108">8</text>
<text style="fill:#555" x="24" y="108">8</text>
<text style="fill:#555" x="30" y="108">8</text>
<text style="fill:#555" x="36" y="108">8</text>
<text style="fill:#555" x="42" y="108">.</text>
<text style="fill:#555" x="48" y="108">.</text>
<text style="fill:#555" x="54" y="108">.</text>
<text style="fill:#555" x="12" y="118">.</text>
<text style="fill:#555" x="18" y="118">.</text>
<text style="fill:#555" x="24" y="118">.</text>
<text style="fill:#555" x="30" y="118">.</text>
<text style="fill:#555" x="36" y="118">.</text>
<text style="fill:#555" x="42" y="118">.</text>
<text style="fill:#555" x="48" y="118">.</text>
 </g>
</svg>
